<?xml version="1.0" encoding="iso-8859-1"?>
<!-- Generator: Adobe Illustrator 21.0.0, SVG Export Plug-In . SVG Version: 6.00 Build 0)  -->
<svg xmlns="http://www.w3.org/2000/svg" xmlns:xlink="http://www.w3.org/1999/xlink" version="1.1" id="Capa_1" x="0px" y="0px" viewBox="0 0 512 512" style="enable-background:new 0 0 512 512;" xml:space="preserve" width="512" height="512">
<g>
	<circle cx="256" cy="226" r="15"/>
	<path d="M166,331c-41.327,0-75,34.671-75,76v90c0,8.284,6.716,15,15,15h300c8.284,0,15-6.716,15-15v-90c0-41.327-33.672-76-75-76   h-45v-7.797c53.904-19.106,90-70.965,90-128.203v-60C391,60.192,330.338,0,256,0c-74.439,0-135,60.561-135,135v60   c0,54.677,32.729,107.908,90,128.19V331H166z M229.735,297.572C181.525,285.177,151,241.894,151,195v-60   c0-57.897,47.103-105,105-105c57.897,0,105,46.998,105,105v60c0,47.831-33.097,90.965-78.697,102.563   C275.654,299.253,271,305.239,271,312.1V346c0,8.284,6.716,15,15,15h60c24.393,0,45,21.065,45,46v75h-30v-15   c0-8.284-6.716-15-15-15s-15,6.716-15,15v15H181v-15c0-8.284-6.716-15-15-15s-15,6.716-15,15v15h-30v-75c0-24.935,20.607-46,45-46   h60c8.284,0,15-6.716,15-15v-33.9C241,305.254,236.365,299.277,229.735,297.572z"/>
</g>















</svg>
