<svg height="496pt" viewBox="0 -59 496 495" width="496pt" xmlns="http://www.w3.org/2000/svg"><path d="m456 .5h-368c-22.082031.027344-39.972656 17.917969-40 40v32h-8c-22.082031.027344-39.9726562 17.917969-40 40v224c.0273438 22.082031 17.917969 39.972656 40 40h368c22.082031-.027344 39.972656-17.917969 40-40v-32h8c22.082031-.027344 39.972656-17.917969 40-40v-224c-.027344-22.082031-17.917969-39.972656-40-40zm-416 88h368c13.253906 0 24 10.746094 24 24v24h-416v-24c0-13.253906 10.746094-24 24-24zm392 248c0 13.253906-10.746094 24-24 24h-368c-13.253906 0-24-10.746094-24-24v-120h416zm48-72c0 13.253906-10.746094 24-24 24h-8v-176c-.027344-22.082031-17.917969-39.972656-40-40h-344v-32c0-13.253906 10.746094-24 24-24h368c13.253906 0 24 10.746094 24 24zm0 0"/></svg>